<svg xmlns="http://www.w3.org/2000/svg" width="50.203" height="50.191" viewBox="0 0 50.203 50.191">
  <path id="Icon_awesome-instagram" data-name="Icon awesome-instagram" d="M25.1,14.465A12.868,12.868,0,1,0,37.97,27.333,12.848,12.848,0,0,0,25.1,14.465Zm0,21.235a8.366,8.366,0,1,1,8.366-8.366A8.381,8.381,0,0,1,25.1,35.7ZM41.5,13.939a3,3,0,1,1-3-3A2.995,2.995,0,0,1,41.5,13.939Zm8.523,3.046c-.19-4.021-1.109-7.582-4.054-10.517s-6.5-3.853-10.517-4.054c-4.144-.235-16.564-.235-20.708,0C10.732,2.6,7.171,3.523,4.225,6.457S.373,12.953.171,16.974c-.235,4.144-.235,16.564,0,20.708C.362,41.7,1.28,45.264,4.225,48.2s6.5,3.853,10.517,4.054c4.144.235,16.564.235,20.708,0,4.021-.19,7.582-1.109,10.517-4.054s3.853-6.5,4.054-10.517c.235-4.144.235-16.553,0-20.7ZM44.668,42.128A8.47,8.47,0,0,1,39.9,46.9c-3.3,1.31-11.144,1.008-14.795,1.008S13.6,48.2,10.307,46.9a8.47,8.47,0,0,1-4.771-4.771c-1.31-3.3-1.008-11.144-1.008-14.795s-.291-11.5,1.008-14.795a8.47,8.47,0,0,1,4.771-4.771C13.611,6.457,21.451,6.76,25.1,6.76S36.6,6.468,39.9,7.768a8.47,8.47,0,0,1,4.771,4.771c1.31,3.3,1.008,11.144,1.008,14.795S45.978,38.835,44.668,42.128Z" transform="translate(0.005 -2.238)" fill="#01989e"/>
</svg>
