<svg xmlns="http://www.w3.org/2000/svg" width="79.464" height="49.817" viewBox="0 0 79.464 49.817">
  <path id="Icon_awesome-behance" data-name="Icon awesome-behance" d="M32.007,27.623c4.387-2.1,6.677-5.27,6.677-10.209,0-9.74-7.257-12.113-15.631-12.113H0V54.194H23.7c8.885,0,17.231-4.263,17.231-14.2C40.933,33.859,38.022,29.32,32.007,27.623ZM10.747,13.648H20.832c3.877,0,7.367,1.09,7.367,5.587,0,4.153-2.718,5.822-6.553,5.822h-10.9V13.648ZM22.239,45.889H10.747V32.424H22.46c4.732,0,7.726,1.973,7.726,6.981,0,4.939-3.573,6.484-7.946,6.484ZM71.7,12.682H51.873V7.868H71.7v4.815ZM79.465,37c0-10.471-6.125-19.2-17.231-19.2-10.788,0-18.114,8.112-18.114,18.735,0,11.023,6.939,18.583,18.114,18.583,8.457,0,13.934-3.808,16.569-11.906H70.221c-.924,3.021-4.732,4.622-7.684,4.622-5.7,0-8.691-3.339-8.691-9.009H79.382C79.423,38.246,79.465,37.625,79.465,37ZM53.859,32.7c.317-4.649,3.408-7.56,8.071-7.56,4.884,0,7.339,2.87,7.753,7.56Z" transform="translate(0 -5.302)" fill="#01989e"/>
</svg>
